<?xml version="1.0" encoding="UTF-8"?>
<svg id="b" data-name="Layer 2" xmlns="http://www.w3.org/2000/svg" viewBox="0 0 359.98 340.76">
  <g id="c" data-name="Layer 1">
    <path d="M237.98,339.63c-7.62-.62-13.5-3.78-18.12-9.67-9.63-12.27-22.32-18.69-37.94-18.55-14.88,.13-27.08,6.28-36.28,18-9.11,11.61-17.38,14-31.09,8.59-17.57-6.93-33.6-16.45-48.18-28.43-8.22-6.75-10.39-16.53-6.02-27.05,8.9-21.41,2.05-45-16.77-57.62-5.89-3.95-12.34-6.47-19.4-7.43-13.71-1.86-20.04-7.9-22.21-21.69-3.1-19.7-2.49-39.35,1.45-58.88,2.09-10.37,9.37-16.73,20.21-18.19,31.21-4.18,49.17-33.78,38.52-63.46-3.91-10.91-1.22-20.13,7.93-27.25,14.29-11.13,29.95-19.82,46.87-26.24,10.06-3.82,19.22-1.43,26.32,6.81,20.57,23.86,53.05,23.81,73.68-.13,6.95-8.07,16.13-10.46,26.01-6.75,18.63,7.01,35.63,16.83,50.98,29.5,8.42,6.95,10.93,15.81,7.38,26.16-9.9,28.9,6.59,57.34,36.47,62.87,11.13,2.06,17.38,8.4,19.45,19.39,3.84,20.39,3.55,40.74-.29,61.08-1.85,9.8-9.23,16.79-19.3,18.33-30.94,4.72-48.41,34.53-37.44,63.85,3.94,10.54,1.51,19.72-7.14,26.83-14,11.49-29.37,20.7-46.16,27.49-2.84,1.15-5.96,1.63-8.95,2.43Zm2.08-169.47c.03-32.72-26.91-59.77-59.59-59.82-33.34-.05-60.39,26.73-60.39,59.78,0,33.29,26.74,60.13,59.97,60.19,33.1,.06,59.98-26.88,60.01-60.16Z" style="fill: #ff007a;"/>
  </g>
</svg>
